<svg width="25" height="26" viewBox="0 0 25 26" fill="none" xmlns="http://www.w3.org/2000/svg">
<path d="M12.0858 8.9715V13.0001L15.1072 16.0215M21.1501 13.0001C21.1501 14.1904 20.9156 15.3691 20.4601 16.4688C20.0046 17.5686 19.3369 18.5678 18.4952 19.4095C17.6535 20.2512 16.6543 20.9189 15.5545 21.3744C14.4548 21.8299 13.2761 22.0644 12.0858 22.0644C10.8954 22.0644 9.71675 21.8299 8.61702 21.3744C7.51729 20.9189 6.51805 20.2512 5.67635 19.4095C4.83466 18.5678 4.16698 17.5686 3.71146 16.4688C3.25594 15.3691 3.02148 14.1904 3.02148 13.0001C3.02148 10.5961 3.97647 8.29054 5.67635 6.59066C7.37623 4.89078 9.68177 3.93579 12.0858 3.93579C14.4898 3.93579 16.7953 4.89078 18.4952 6.59066C20.1951 8.29054 21.1501 10.5961 21.1501 13.0001Z" stroke="white" stroke-width="2.68571" stroke-linecap="round" stroke-linejoin="round"/>
</svg>
