<svg width="200" height="200" viewBox="0 0 200 200" fill="none" xmlns="http://www.w3.org/2000/svg">
<path d="M75 83.3333H58.3333V99.9999H75V83.3333ZM108.333 83.3333H91.6667V99.9999H108.333V83.3333ZM141.667 83.3333H125V99.9999H141.667V83.3333ZM158.333 24.9999H150V8.33325H133.333V24.9999H66.6667V8.33325H50V24.9999H41.6667C37.2464 24.9999 33.0072 26.7559 29.8816 29.8815C26.7559 33.0071 25 37.2463 25 41.6666V158.333C25 162.754 26.7559 166.993 29.8816 170.118C33.0072 173.244 37.2464 175 41.6667 175H158.333C162.754 175 166.993 173.244 170.118 170.118C173.244 166.993 175 162.754 175 158.333V41.6666C175 37.2463 173.244 33.0071 170.118 29.8815C166.993 26.7559 162.754 24.9999 158.333 24.9999ZM158.333 158.333H41.6667V66.6666H158.333V158.333Z" fill="white"/>
</svg>
