<svg width="200" height="200" viewBox="0 0 200 200" fill="none" xmlns="http://www.w3.org/2000/svg">
<path d="M99.9993 95.8334C94.474 95.8334 89.175 93.6385 85.268 89.7315C81.3609 85.8245 79.166 80.5254 79.166 75.0001C79.166 69.4747 81.3609 64.1757 85.268 60.2687C89.175 56.3617 94.474 54.1667 99.9993 54.1667C105.525 54.1667 110.824 56.3617 114.731 60.2687C118.638 64.1757 120.833 69.4747 120.833 75.0001C120.833 77.736 120.294 80.445 119.247 82.9727C118.2 85.5003 116.665 87.7969 114.731 89.7315C112.796 91.666 110.5 93.2006 107.972 94.2476C105.444 95.2945 102.735 95.8334 99.9993 95.8334ZM99.9993 16.6667C84.5284 16.6667 69.6911 22.8126 58.7515 33.7522C47.8118 44.6918 41.666 59.5291 41.666 75.0001C41.666 118.75 99.9993 183.333 99.9993 183.333C99.9993 183.333 158.333 118.75 158.333 75.0001C158.333 59.5291 152.187 44.6918 141.247 33.7522C130.308 22.8126 115.47 16.6667 99.9993 16.6667Z" fill="white"/>
</svg>
